<?xml version="1.0" encoding="UTF-8" standalone="no"?>
<!-- Created with Inkscape (http://www.inkscape.org/) -->

<svg
   width="53.195347mm"
   height="87.892952mm"
   viewBox="0 0 53.195347 87.892952"
   version="1.1"
   id="svg5"
   xml:space="preserve"
   xmlns="http://www.w3.org/2000/svg"
   xmlns:svg="http://www.w3.org/2000/svg"><defs
     id="defs2" /><g
     id="layer8"
     transform="translate(-15.05095,-68.820749)"><g
       id="layer9"><path
         style="fill:#b3b3b3;stroke:none;stroke-width:0.264583px;stroke-linecap:butt;stroke-linejoin:miter;stroke-opacity:1"
         d="M 19.760955,74.464439 45.727313,68.820754 61.927192,83.527026 36.306109,89.041879 Z"
         id="path9218" /><path
         style="fill:#808080;stroke:none;stroke-width:0.264583px;stroke-linecap:butt;stroke-linejoin:miter;stroke-opacity:1"
         d="m 19.761552,74.4505 0.229786,59.16976 15.8552,14.01692 0.49382,-58.614415 z"
         id="path9220" /><path
         style="fill:#cccccc;stroke:none;stroke-width:0.264583px;stroke-linecap:butt;stroke-linejoin:miter;stroke-opacity:1"
         d="M 35.832177,147.63718 62.070808,142.51009 61.927192,83.527026 36.306109,89.008227 Z"
         id="path9226" /><path
         style="fill:#666666;stroke:none;stroke-width:0.264583px;stroke-linecap:butt;stroke-linejoin:miter;stroke-opacity:1"
         d="m 19.64666,133.0458 -4.59571,4.8255 21.370051,18.8424 1.034034,-6.77867 -1.63722,-2.36965 z"
         id="path9234" /><path
         style="fill:#b3b3b3;stroke:none;stroke-width:0.264583px;stroke-linecap:butt;stroke-linejoin:miter;stroke-opacity:1"
         d="m 35.875261,147.60846 26.195547,-5.09837 -0.02872,-1.09148 2.455831,2.57073 -27.157772,5.94569 z"
         id="path9236" /><path
         style="fill:#cccccc;stroke:none;stroke-width:0.264583px;stroke-linecap:butt;stroke-linejoin:miter;stroke-opacity:1"
         d="m 37.383227,149.90631 -0.962226,6.8074 31.82529,-6.89357 -3.791461,-5.85953 z"
         id="path9238" /><path
         style="fill:none;stroke:none;stroke-width:0.264583px;stroke-linecap:butt;stroke-linejoin:miter;stroke-opacity:1"
         d="m 38.144391,90.59293 21.427498,-4.538263 0.172339,4.193585 -21.657283,4.538263 z"
         id="path9240" /><path
         style="fill:none;stroke:none;stroke-width:0.264583px;stroke-linecap:butt;stroke-linejoin:miter;stroke-opacity:1"
         d="m 38.029499,95.877998 21.54239,-4.595709 0.172339,4.365924 -21.54239,4.538267 z"
         id="path9242" /><path
         style="fill:none;stroke:none;stroke-width:0.264583px;stroke-linecap:butt;stroke-linejoin:miter;stroke-opacity:1"
         d="m 38.086945,101.3354 21.599837,-4.768046 -0.05745,4.480816 -21.427498,4.48082 z"
         id="path9244" /><path
         style="fill:#808080;stroke:none;stroke-width:0.264583px;stroke-linecap:butt;stroke-linejoin:miter;stroke-opacity:1"
         d="m 38.826778,90.765269 19.251507,-4.078692 0.45957,0.517017 -19.244534,4.078695 z"
         id="path9246" /><path
         style="fill:#4d4d4d;stroke:none;stroke-width:0.264583px;stroke-linecap:butt;stroke-linejoin:miter;stroke-opacity:1"
         d="m 39.293321,91.282289 v 2.068068 l -0.574466,-0.63191 0.05745,-2.010624 z"
         id="path9248" /><path
         style="fill:none;stroke:none;stroke-width:0.264583px;stroke-linecap:butt;stroke-linejoin:miter;stroke-opacity:1"
         d="M 39.350767,93.29291 58.652748,89.271664 V 87.318486 L 39.350767,91.22484 Z"
         id="path9250" /><path
         style="fill:#999999;stroke:none;stroke-width:0.264583px;stroke-linecap:butt;stroke-linejoin:miter;stroke-opacity:1"
         d="m 37.939752,94.158831 21.285258,-4.468281 0.365585,0.446828 -21.48836,4.671383 z"
         id="path9252" /><path
         style="fill:#4d4d4d;stroke:none;stroke-width:0.264583px;stroke-linecap:butt;stroke-linejoin:miter;stroke-opacity:1"
         d="m 59.2047,86.126082 -0.03047,3.574623 0.436672,0.436674 -0.04062,-3.798038 z"
         id="path9254" /><path
         style="fill:#999999;stroke:none;stroke-width:0.264583px;stroke-linecap:butt;stroke-linejoin:miter;stroke-opacity:1"
         d="m 59.021905,94.849383 0.609312,0.771792 -21.40712,4.630765 -0.121862,-0.812418 z"
         id="path9256" /><path
         style="fill:#999999;stroke:none;stroke-width:0.264583px;stroke-linecap:butt;stroke-linejoin:miter;stroke-opacity:1"
         d="m 38.731856,96.189866 0.629621,0.609311 19.213602,-4.183936 -0.528071,-0.64993 z"
         id="path9258" /><path
         style="fill:#4d4d4d;stroke:none;stroke-width:0.264583px;stroke-linecap:butt;stroke-linejoin:miter;stroke-opacity:1"
         d="m 38.721702,96.179709 -0.0914,2.244295 0.56869,0.406209 0.121864,-2.071658 z"
         id="path9260" /><path
         style="fill:none;stroke:none;stroke-width:0.264583px;stroke-linecap:butt;stroke-linejoin:miter;stroke-opacity:1"
         d="m 58.493837,92.574622 -19.091738,4.224555 -0.121862,2.234139"
         id="path9262" /><path
         style="fill:none;stroke:none;stroke-width:0.264583px;stroke-linecap:butt;stroke-linejoin:miter;stroke-opacity:1"
         d="m 39.37949,96.768416 19.244535,-4.164862 -0.114893,2.154238 -19.187088,4.222311 z"
         id="path9264" /><path
         style="fill:#4d4d4d;stroke:none;stroke-width:0.264583px;stroke-linecap:butt;stroke-linejoin:miter;stroke-opacity:1"
         d="m 59.056315,91.319425 -0.08761,3.495813 0.630167,0.816149 0.0017,-4.090291 z"
         id="path9266" /><path
         style="fill:#999999;stroke:none;stroke-width:0.264583px;stroke-linecap:butt;stroke-linejoin:miter;stroke-opacity:1"
         d="m 38.690131,101.57236 19.4456,-4.200757 0.488294,0.488293 -19.359428,4.251034 z"
         id="path9268" /><path
         style="fill:#4d4d4d;stroke:none;stroke-width:0.264583px;stroke-linecap:butt;stroke-linejoin:miter;stroke-opacity:1"
         d="m 38.690131,101.55083 0.631913,0.53137 -0.02872,1.99627 -0.617551,-0.40213 z"
         id="path9270" /><path
         style="fill:none;stroke:none;stroke-width:0.264583px;stroke-linecap:butt;stroke-linejoin:miter;stroke-opacity:1"
         d="m 58.63601,97.814695 -19.213602,4.305795 v 2.1529 l 19.172981,-4.10269 z"
         id="path9272" /><path
         style="fill:#4d4d4d;stroke:none;stroke-width:0.264583px;stroke-linecap:butt;stroke-linejoin:miter;stroke-opacity:1"
         d="m 59.021908,96.717934 v 3.716796 l 0.528068,0.589 0.142172,-4.366727 z"
         id="path9274" /><path
         style="fill:#999999;stroke:none;stroke-width:0.264583px;stroke-linecap:butt;stroke-linejoin:miter;stroke-opacity:1"
         d="m 59.042217,100.41442 -20.879051,4.42766 0.04062,0.73117 21.356343,-4.61045 z"
         id="path9276" /><path
         style="fill:#1a1a1a;stroke:none;stroke-width:0.264583px;stroke-linecap:butt;stroke-linejoin:miter;stroke-opacity:1"
         d="m 40.356078,92.11526 1.120203,-0.229785 v 0.804249 l -1.062757,0.315955 z"
         id="path9278" /><path
         style="fill:#1a1a1a;stroke:none;stroke-width:0.264583px;stroke-linecap:butt;stroke-linejoin:miter;stroke-opacity:1"
         d="m 40.384801,97.486495 1.005311,-0.172339 0.114892,1.17765 -1.09148,0.145061 z"
         id="path9280" /><path
         style="fill:#1a1a1a;stroke:none;stroke-width:0.264583px;stroke-linecap:butt;stroke-linejoin:miter;stroke-opacity:1"
         d="m 40.356078,102.91518 1.120203,-0.28723 0.01436,1.09148 -1.105842,0.28723 z"
         id="path9282" /><path
         style="fill:#008000;stroke:none;stroke-width:0.264583px;stroke-linecap:butt;stroke-linejoin:miter;stroke-opacity:1"
         d="m 55.407027,89.874851 -0.05745,-0.890418 2.125514,-0.517017 v 1.005311 z"
         id="path9284" /><path
         style="fill:#008000;stroke:none;stroke-width:0.264583px;stroke-linecap:butt;stroke-linejoin:miter;stroke-opacity:1"
         d="m 55.378304,94.384391 0.05745,1.091483 2.240407,-0.517017 -0.114893,-1.14893 z"
         id="path9286" /><path
         style="fill:#008000;stroke:none;stroke-width:0.264583px;stroke-linecap:butt;stroke-linejoin:miter;stroke-opacity:1"
         d="m 55.263412,99.698182 2.211683,-0.459571 0.05745,1.062759 -2.240407,0.54574 z"
         id="path9288" /><path
         style="fill:#ff5555;stroke:none;stroke-width:0.264583px;stroke-linecap:butt;stroke-linejoin:miter;stroke-opacity:1"
         d="m 37.13908,107.79812 23.639182,-4.99783 0.593331,0.4645 -23.744219,5.13652 z"
         id="path9290" /><path
         style="fill:#550000;stroke:none;stroke-width:0.264583px;stroke-linecap:butt;stroke-linejoin:miter;stroke-opacity:1"
         d="m 37.146261,107.77658 -0.0359,5.50767 0.495475,0.36622 0.04308,-5.24917 z"
         id="path9292" /><path
         style="fill:#aa0000;stroke:none;stroke-width:0.264583px;stroke-linecap:butt;stroke-linejoin:miter;stroke-opacity:1"
         d="m 37.598651,113.65765 23.725351,-4.91167 0.02872,-5.51485 -23.703809,5.163 z"
         id="path9294" /><path
         style="fill:#00ff00;stroke:none;stroke-width:0.264583px;stroke-linecap:butt;stroke-linejoin:miter;stroke-opacity:1"
         d="m 39.322044,116.12784 2.068068,-0.57446 0.114892,2.15424 -2.240407,0.54574 z"
         id="path9296" /><path
         style="fill:#ff0000;stroke:none;stroke-width:0.264583px;stroke-linecap:butt;stroke-linejoin:miter;stroke-opacity:1"
         d="m 40.959264,108.74598 3.188274,-0.63191 0.05745,3.15956 -3.245721,0.68935 z"
         id="path9298" /><path
         style="fill:#b3b3b3;stroke:none;stroke-width:0.264583px;stroke-linecap:butt;stroke-linejoin:miter;stroke-opacity:1"
         d="m 42.567762,122.99269 14.763718,-3.10211 0.861697,22.05941 -15.510523,3.56167 z"
         id="path9302" /><path
         style="fill:#6c5353;stroke:none;stroke-width:0.264583px;stroke-linecap:butt;stroke-linejoin:miter;stroke-opacity:1"
         d="m 43.601798,123.73949 1.206373,-0.17234 v 20.39346 l -1.09148,0.22979 z"
         id="path9304" /><path
         style="fill:#6c5353;stroke:none;stroke-width:0.264583px;stroke-linecap:butt;stroke-linejoin:miter;stroke-opacity:1"
         d="m 45.899652,123.33736 0.919143,-0.22978 0.114893,20.39346 -1.148929,0.22979 z"
         id="path9306" /><path
         style="fill:#6c5353;stroke:none;stroke-width:0.264583px;stroke-linecap:butt;stroke-linejoin:miter;stroke-opacity:1"
         d="m 47.967722,122.82035 1.148927,-0.0575 v 20.33602 l -1.034034,0.17233 z"
         id="path9308" /><path
         style="fill:#6c5353;stroke:none;stroke-width:0.264583px;stroke-linecap:butt;stroke-linejoin:miter;stroke-opacity:1"
         d="m 51.069827,122.18844 1.09148,-0.17234 v 20.39346 h -0.919141 z"
         id="path9310" /><path
         style="fill:#6c5353;stroke:none;stroke-width:0.264583px;stroke-linecap:butt;stroke-linejoin:miter;stroke-opacity:1"
         d="m 53.252787,121.90121 1.206376,-0.28724 -0.114893,20.16368 -0.97659,0.22978 z"
         id="path9312" /><path
         style="fill:#6c5353;stroke:none;stroke-width:0.264583px;stroke-linecap:butt;stroke-linejoin:miter;stroke-opacity:1"
         d="m 55.263412,121.32674 1.09148,-0.28723 0.114893,20.33602 -0.976588,0.11489 z"
         id="path9314" /></g></g></svg>
