<svg width="386" height="402" viewBox="0 0 386 402" fill="none" xmlns="http://www.w3.org/2000/svg">
<path d="M111.187 252.897L1.29406 190.817L278.314 113.221L384.087 177.3L111.187 252.897Z" fill="#AA4400" stroke="black"/>
<path d="M109.868 275.986L0.504804 214.155L0.876093 191.506L110.612 252.942L109.868 275.986Z" fill="#803300" stroke="black"/>
<path d="M111.8 274.811L111.241 252.839L384.743 178.053L385.486 199.251L111.8 274.811Z" fill="#AA4400" stroke="black"/>
<path d="M267.148 232.396L288.809 226.696L289.192 282.286L267.817 287.548L267.148 232.396Z" fill="#552200" stroke="black"/>
<path d="M251.595 237.041L266.2 232.659L266.959 287.285L251.595 278.871V237.041Z" fill="#2B1100" stroke="black"/>
<path d="M353.691 335.302L351.485 208.94L372.631 203.775L372.245 329.487L353.691 335.302Z" fill="#AA4400" stroke="black"/>
<path d="M335.813 326.048V213.651L350.991 209.279L352.737 335.246L335.813 326.048Z" fill="#803300" stroke="black"/>
<path d="M112.014 273.342L132.262 269.441L132.455 396.908L112.787 401.361L112.014 273.342Z" fill="#AA4400" stroke="black"/>
<path d="M96.0262 392.339L96.4126 269.068L110.623 276.355L111.396 401.121L96.0262 392.339Z" fill="#803300" stroke="black"/>
<path d="M26.2518 230.111L48.2384 242.036L48.6258 349.355L28.9487 354.552L26.2518 230.111Z" fill="#AA4400" stroke="black"/>
<path d="M11.8063 346.311L11.5167 220.902L26.0174 229.931L27.9499 354.383L11.8063 346.311Z" fill="#803300" stroke="black"/>
<path d="M215.919 65.114L215.92 64.8044L215.643 64.6659L212.028 62.8583L213.17 13.9262L303.031 67.0525L301.199 172.446L215.822 122.337L215.919 65.114Z" fill="#999999" stroke="black"/>
<path d="M303.651 66.2772L213.974 13.24L262.131 0.537231L349.095 52.6773L303.651 66.2772Z" fill="#CCCCCC" stroke="black"/>
<path d="M301.897 172.824L303.826 67.549L313.168 73.1897L311.046 177.927L301.897 172.824Z" fill="#808080" stroke="black"/>
<path d="M330.423 67.8853L330.245 68.2323C330.335 68.056 330.39 67.9495 330.423 67.8853C330.423 67.8853 330.423 67.8853 330.423 67.8853ZM330.29 67.6964C330.248 67.6758 330.199 67.6521 330.144 67.6255C329.935 67.5252 329.634 67.3842 329.261 67.2203C328.516 66.8927 327.482 66.4716 326.329 66.0994C325.177 65.7279 323.892 65.4007 322.649 65.2678C321.413 65.1357 320.171 65.1903 319.133 65.6271C318.105 66.0601 317.548 66.6767 317.367 67.4264C317.197 68.1314 317.389 68.8483 317.588 69.4201C317.65 69.5998 317.722 69.7878 317.788 69.9596C317.825 70.0571 317.861 70.1495 317.891 70.2321C317.983 70.482 318.043 70.6732 318.065 70.8222C318.082 70.9312 318.071 70.9762 318.067 70.9881C318.054 70.9993 318.005 71.0305 317.873 71.0545C316.753 71.2582 315.597 71.6619 314.731 72.0082C314.296 72.1824 313.929 72.3441 313.67 72.4626C313.61 72.4899 313.556 72.5149 313.509 72.5372L304.531 67.0127L349.657 52.6027L356.836 57.5729C356.833 57.6112 356.827 57.6541 356.82 57.7009C356.783 57.937 356.695 58.2718 356.486 58.6439C356.075 59.3742 355.16 60.3188 353.068 60.905C351.295 61.4019 345.55 63.1152 340.255 64.702C337.606 65.4959 335.067 66.2588 333.191 66.8232C332.253 67.1054 331.48 67.338 330.942 67.5001L330.319 67.6876L330.29 67.6964ZM356.844 57.3558L356.844 57.3561L356.844 57.3558ZM318.072 70.9839C318.072 70.984 318.071 70.9848 318.069 70.9863C318.071 70.9846 318.072 70.9838 318.072 70.9839Z" fill="#B3B3B3" stroke="black"/>
<mask id="path-16-inside-1_6_336" fill="white">
<path d="M330.257 68.2309C330.257 68.2309 326.275 65.7991 323.38 65.6612C320.485 65.5233 318.085 65.9704 317.809 67.6246C317.533 69.2788 319.17 71.272 318.205 71.4098C317.24 71.5477 313.616 72.9102 313.616 72.9102L311.526 178.836L316.351 178.009C316.351 178.009 319.659 171.875 322.761 173.667C330.343 177.733 328.964 176.699 328.964 176.699L353.019 167.67C353.019 167.67 358.395 166.016 357.292 162.294C356.19 158.572 357.283 57.3818 357.283 57.3818C357.283 57.3818 356.217 59.887 354.516 60.5524"/>
</mask>
<path d="M330.257 68.2309C330.257 68.2309 326.275 65.7991 323.38 65.6612C320.485 65.5233 318.085 65.9704 317.809 67.6246C317.533 69.2788 319.17 71.272 318.205 71.4098C317.24 71.5477 313.616 72.9102 313.616 72.9102L311.526 178.836L316.351 178.009C316.351 178.009 319.659 171.875 322.761 173.667C330.343 177.733 328.964 176.699 328.964 176.699L353.019 167.67C353.019 167.67 358.395 166.016 357.292 162.294C356.19 158.572 357.283 57.3818 357.283 57.3818C357.283 57.3818 356.217 59.887 354.516 60.5524" fill="#999999"/>
<path d="M323.38 65.6612L323.332 66.6601H323.332L323.38 65.6612ZM317.809 67.6246L318.795 67.789L318.795 67.7889L317.809 67.6246ZM318.205 71.4098L318.064 70.4199L318.064 70.4199L318.205 71.4098ZM313.616 72.9102L313.264 71.9741L312.63 72.2127L312.616 72.8904L313.616 72.9102ZM311.526 178.836L310.526 178.816L310.502 180.026L311.695 179.822L311.526 178.836ZM316.351 178.009L316.52 178.995L317 178.912L317.231 178.484L316.351 178.009ZM322.761 173.667L322.261 174.533L322.274 174.541L322.288 174.548L322.761 173.667ZM328.964 176.699L328.613 175.763L326.904 176.405L328.364 177.499L328.964 176.699ZM353.019 167.67L352.725 166.715L352.696 166.723L352.668 166.734L353.019 167.67ZM357.283 57.3818L358.283 57.3926L356.363 56.9903L357.283 57.3818ZM330.257 68.2309C330.778 67.3775 330.778 67.3774 330.777 67.3773C330.777 67.3773 330.777 67.3772 330.777 67.3771C330.777 67.3769 330.776 67.3767 330.776 67.3764C330.775 67.3759 330.774 67.3753 330.773 67.3745C330.77 67.3729 330.767 67.3708 330.762 67.368C330.753 67.3626 330.74 67.3549 330.724 67.3451C330.691 67.3255 330.644 67.2975 330.583 67.2622C330.462 67.1917 330.288 67.092 330.071 66.9725C329.637 66.7339 329.027 66.4143 328.322 66.0895C326.946 65.4554 325.079 64.741 323.428 64.6623L323.332 66.6601C324.576 66.7193 326.147 67.2897 327.485 67.906C328.138 68.2064 328.704 68.5033 329.107 68.725C329.308 68.8357 329.468 68.927 329.576 68.9901C329.63 69.0216 329.671 69.0459 329.698 69.062C329.712 69.0701 329.722 69.0761 329.728 69.0798C329.731 69.0817 329.733 69.083 329.734 69.0838C329.735 69.0842 329.735 69.0844 329.736 69.0845C329.736 69.0845 329.736 69.0845 329.736 69.0845C329.736 69.0845 329.735 69.0845 329.735 69.0844C329.735 69.0844 329.735 69.0843 330.257 68.2309ZM323.428 64.6623C321.939 64.5914 320.481 64.6634 319.323 65.0137C318.172 65.3615 317.052 66.0814 316.823 67.4602L318.795 67.7889C318.841 67.5135 319.059 67.1828 319.902 66.9281C320.736 66.6757 321.926 66.5931 323.332 66.6601L323.428 64.6623ZM316.823 67.4601C316.723 68.057 316.802 68.6377 316.917 69.1244C317.031 69.6092 317.201 70.0741 317.322 70.4177C317.386 70.5995 317.435 70.7431 317.47 70.8644C317.487 70.9234 317.498 70.9688 317.505 71.0033C317.512 71.0386 317.513 71.0528 317.513 71.0507C317.513 71.0496 317.511 71.0151 317.522 70.9591C317.533 70.9003 317.561 70.8102 317.626 70.7139C317.779 70.4888 317.991 70.4302 318.064 70.4199L318.346 72.3998C318.66 72.3549 319.032 72.204 319.281 71.837C319.506 71.5055 319.522 71.152 319.51 70.935C319.486 70.5312 319.319 70.0686 319.209 69.754C319.075 69.3752 318.948 69.023 318.863 68.6646C318.779 68.3079 318.757 68.0192 318.795 67.789L316.823 67.4601ZM318.064 70.4199C317.733 70.4671 317.253 70.6022 316.785 70.7471C316.294 70.8992 315.738 71.0867 315.22 71.2674C314.7 71.4486 314.212 71.625 313.854 71.7561C313.675 71.8216 313.528 71.876 313.426 71.914C313.374 71.933 313.334 71.9479 313.307 71.9582C313.293 71.9633 313.283 71.9672 313.276 71.9699C313.272 71.9713 313.269 71.9723 313.267 71.973C313.266 71.9733 313.266 71.9736 313.265 71.9738C313.265 71.9739 313.265 71.974 313.265 71.974C313.265 71.9741 313.264 71.9741 313.264 71.9741C313.264 71.9741 313.264 71.9741 313.616 72.9102C313.968 73.8462 313.968 73.8462 313.968 73.8462C313.968 73.8462 313.968 73.8462 313.968 73.8462C313.968 73.8461 313.968 73.8461 313.969 73.846C313.969 73.8459 313.97 73.8457 313.97 73.8454C313.972 73.8447 313.975 73.8438 313.978 73.8426C313.984 73.8401 313.994 73.8364 314.007 73.8315C314.034 73.8217 314.072 73.8072 314.122 73.7887C314.222 73.7517 314.366 73.6985 314.541 73.6342C314.893 73.5054 315.371 73.3327 315.878 73.156C316.386 72.9788 316.917 72.7999 317.377 72.6577C317.859 72.5083 318.195 72.4214 318.346 72.3998L318.064 70.4199ZM312.616 72.8904L310.526 178.816L312.526 178.856L314.616 72.9299L312.616 72.8904ZM311.695 179.822L316.52 178.995L316.182 177.023L311.357 177.851L311.695 179.822ZM316.351 178.009C317.231 178.484 317.231 178.484 317.231 178.484C317.231 178.484 317.231 178.484 317.231 178.484C317.231 178.484 317.231 178.484 317.231 178.484C317.231 178.484 317.231 178.484 317.231 178.483C317.232 178.481 317.234 178.478 317.237 178.473C317.242 178.464 317.25 178.45 317.261 178.43C317.283 178.391 317.316 178.332 317.361 178.256C317.451 178.103 317.584 177.885 317.753 177.627C318.093 177.107 318.57 176.446 319.126 175.846C319.692 175.235 320.285 174.751 320.848 174.507C321.373 174.28 321.818 174.277 322.261 174.533L323.261 172.801C322.153 172.16 321.022 172.252 320.054 172.672C319.124 173.074 318.308 173.787 317.66 174.486C317.001 175.196 316.456 175.956 316.08 176.53C315.89 176.82 315.74 177.066 315.637 177.242C315.585 177.33 315.545 177.401 315.517 177.451C315.503 177.476 315.492 177.495 315.484 177.51C315.48 177.517 315.477 177.522 315.475 177.526C315.474 177.528 315.473 177.53 315.472 177.531C315.472 177.532 315.472 177.533 315.471 177.533C315.471 177.533 315.471 177.534 315.471 177.534C315.471 177.534 315.471 177.534 316.351 178.009ZM322.288 174.548C326.069 176.576 327.665 177.359 328.323 177.632C328.477 177.696 328.644 177.76 328.797 177.791C328.826 177.797 329.074 177.858 329.356 177.768C329.539 177.71 329.825 177.556 329.976 177.211C330.116 176.895 330.053 176.615 330.013 176.49C329.941 176.267 329.805 176.122 329.788 176.102C329.742 176.051 329.698 176.011 329.673 175.988C329.644 175.963 329.619 175.942 329.602 175.928C329.592 175.921 329.585 175.915 329.578 175.91C329.575 175.908 329.572 175.906 329.57 175.904C329.569 175.903 329.568 175.902 329.567 175.901C329.566 175.901 329.566 175.901 329.565 175.9C329.565 175.9 329.565 175.9 329.565 175.9C329.564 175.9 329.564 175.899 328.964 176.699C328.364 177.499 328.364 177.499 328.364 177.499C328.364 177.499 328.363 177.499 328.363 177.499C328.363 177.498 328.362 177.498 328.362 177.498C328.361 177.497 328.361 177.497 328.36 177.496C328.359 177.496 328.358 177.495 328.357 177.494C328.356 177.493 328.355 177.492 328.354 177.492C328.353 177.491 328.35 177.489 328.344 177.484C328.342 177.481 328.322 177.464 328.295 177.434C328.282 177.419 328.256 177.389 328.228 177.347C328.204 177.313 328.149 177.228 328.109 177.104C328.072 176.989 328.009 176.716 328.146 176.405C328.295 176.067 328.575 175.918 328.749 175.862C328.907 175.812 329.036 175.816 329.084 175.818C329.143 175.821 329.186 175.829 329.204 175.833C329.252 175.843 329.236 175.845 329.088 175.784C328.54 175.557 327.035 174.824 323.234 172.786L322.288 174.548ZM329.316 177.636L353.37 168.606L352.668 166.734L328.613 175.763L329.316 177.636ZM353.019 167.67C353.313 168.626 353.313 168.626 353.314 168.626C353.314 168.626 353.314 168.626 353.315 168.626C353.315 168.625 353.316 168.625 353.317 168.625C353.318 168.624 353.32 168.624 353.322 168.623C353.327 168.622 353.332 168.62 353.339 168.618C353.353 168.613 353.372 168.607 353.395 168.6C353.442 168.584 353.507 168.562 353.589 168.532C353.751 168.473 353.977 168.386 354.243 168.27C354.771 168.039 355.478 167.682 356.158 167.186C357.491 166.215 358.984 164.484 358.251 162.01L356.334 162.578C356.703 163.826 356.06 164.783 354.98 165.57C354.455 165.953 353.887 166.242 353.441 166.438C353.22 166.534 353.035 166.606 352.907 166.652C352.843 166.675 352.795 166.692 352.763 166.702C352.747 166.707 352.736 166.711 352.73 166.713C352.726 166.714 352.724 166.715 352.724 166.715C352.723 166.715 352.723 166.715 352.723 166.715C352.723 166.715 352.724 166.715 352.724 166.715C352.724 166.715 352.724 166.715 352.724 166.715C352.725 166.715 352.725 166.715 353.019 167.67ZM358.251 162.01C358.253 162.016 358.244 161.986 358.231 161.897C358.218 161.815 358.204 161.705 358.19 161.565C358.162 161.286 358.135 160.913 358.109 160.447C358.057 159.517 358.013 158.251 357.975 156.693C357.9 153.58 357.852 149.329 357.826 144.326C357.773 134.322 357.806 121.328 357.874 108.448C357.942 95.5677 358.044 82.804 358.129 73.2599C358.172 68.4879 358.21 64.521 358.238 61.7471C358.252 60.3602 358.263 59.2715 358.271 58.5296C358.275 58.1586 358.278 57.8744 358.28 57.6829C358.281 57.5871 358.281 57.5145 358.282 57.4659C358.282 57.4416 358.282 57.4233 358.282 57.411C358.283 57.4049 358.283 57.4003 358.283 57.3972C358.283 57.3957 358.283 57.3946 358.283 57.3938C358.283 57.393 358.283 57.3926 357.283 57.3818C356.283 57.371 356.283 57.3714 356.283 57.3722C356.283 57.373 356.283 57.3741 356.283 57.3757C356.283 57.3788 356.283 57.3834 356.283 57.3895C356.282 57.4018 356.282 57.4201 356.282 57.4445C356.281 57.4932 356.281 57.5658 356.28 57.6616C356.278 57.8532 356.275 58.1376 356.271 58.5087C356.263 59.2509 356.252 60.3399 356.238 61.7271C356.21 64.5016 356.172 68.4693 356.129 73.242C356.044 82.7875 355.942 95.5539 355.874 108.437C355.806 121.319 355.773 134.321 355.826 144.337C355.852 149.344 355.9 153.609 355.976 156.742C356.014 158.307 356.059 159.597 356.112 160.558C356.139 161.038 356.168 161.444 356.2 161.766C356.23 162.062 356.269 162.36 356.334 162.578L358.251 162.01ZM357.283 57.3818C356.363 56.9903 356.363 56.9901 356.363 56.9899C356.363 56.9898 356.363 56.9897 356.363 56.9895C356.363 56.9893 356.363 56.9892 356.363 56.989C356.363 56.9887 356.363 56.9886 356.363 56.9886C356.363 56.9887 356.363 56.9893 356.363 56.9905C356.361 56.9928 356.359 56.9974 356.356 57.0042C356.35 57.0177 356.341 57.0396 356.327 57.069C356.3 57.1278 356.257 57.216 356.201 57.3252C356.088 57.545 355.921 57.8435 355.708 58.1579C355.258 58.8251 354.709 59.4031 354.152 59.6211L354.88 61.4837C356.024 61.0363 356.858 60.029 357.366 59.2772C357.633 58.8822 357.839 58.5128 357.978 58.2421C358.049 58.1061 358.103 57.9933 358.14 57.9126C358.159 57.8721 358.174 57.8396 358.184 57.8161C358.189 57.8043 358.194 57.7948 358.197 57.7876C358.198 57.784 358.2 57.7811 358.201 57.7787C358.201 57.7775 358.202 57.7764 358.202 57.7756C358.202 57.7751 358.202 57.7747 358.202 57.7744C358.203 57.7742 358.203 57.7739 358.203 57.7738C358.203 57.7736 358.203 57.7734 357.283 57.3818Z" fill="black" mask="url(#path-16-inside-1_6_336)"/>
<path d="M324.203 170.26L320.306 167.829L333.078 163.947L336.858 166.647L324.203 170.26Z" fill="#CCCCCC" stroke="black"/>
<path d="M344.253 68.6562L344.167 67.0245L346.346 66.5508L346.432 68.2772L344.253 68.6562Z" fill="#FF5555" stroke="black"/>
<path d="M351.411 161.569L345.934 162.152L345.802 139.382L351.146 139.614L351.411 161.569Z" fill="#80E5FF" stroke="black"/>
<path d="M321.82 163.566L322.223 119.455L330.733 118.468L330.329 161.223L321.82 163.566Z" fill="#CCCCCC" stroke="black"/>
<path d="M322.395 123.508L322.481 121.793L323.6 121.644L323.686 123.281L322.395 123.508Z" fill="#008000" stroke="black"/>
<path d="M321.675 160.989V159.647L323.295 159.221V160.648L321.675 160.989Z" fill="#4D4D4D" stroke="black"/>
<path d="M322.261 70.719C322.305 69.4882 322.978 68.3855 323.808 68.0244C324.203 67.8526 324.658 67.8337 325.164 68.0702C325.666 68.3052 326.242 68.8057 326.835 69.7181L327.307 74.2044L327.307 74.2701L327.307 74.5386L327.307 75.561C327.307 76.4435 327.306 77.7083 327.305 79.2374C327.303 82.2955 327.298 86.4105 327.289 90.6382C327.271 99.1022 327.234 107.994 327.162 109.785C327.151 110.049 327.143 110.289 327.136 110.509C327.121 110.963 327.109 111.33 327.08 111.644C327.037 112.11 326.962 112.348 326.857 112.494C326.766 112.622 326.604 112.745 326.209 112.846C325.804 112.95 325.224 113.014 324.37 113.067C323.521 113.121 323.067 112.754 322.804 112.384C322.665 112.19 322.577 111.988 322.523 111.833C322.496 111.756 322.479 111.693 322.469 111.651C322.467 111.644 322.465 111.637 322.464 111.631L322.464 111.57L322.461 111.25L322.452 110.031C322.444 108.98 322.432 107.475 322.419 105.66C322.392 102.032 322.358 97.1648 322.326 92.2128C322.263 82.2977 322.213 72.0697 322.261 70.719Z" fill="#B3B3B3" stroke="black"/>
<path d="M133.708 63.2296L133.87 63.3022L134.041 63.2572L145.422 60.2622L203.929 59.3621L214.228 65.189L121.641 92.7871L114.154 88.2362L114.111 88.21L114.063 88.1929L103.139 84.2694L103.041 84.2343L102.938 84.241L81.983 85.6036L74.8917 85.1526L58.4196 80.3789L127.854 60.5952L133.708 63.2296Z" fill="#CCCCCC" stroke="black"/>
<path d="M113.847 89.1589L114.294 195.206L110.078 193.279C110.081 193.252 110.084 193.224 110.088 193.195C110.124 192.9 110.165 192.477 110.191 191.955C110.241 190.914 110.227 189.476 109.966 187.889C109.444 184.719 107.924 180.906 103.912 178.546C100.062 176.281 90.1902 171.006 81.2951 166.305C76.8446 163.953 72.6341 161.741 69.5363 160.118C67.9874 159.307 66.7166 158.642 65.833 158.181C65.3912 157.95 65.0462 157.77 64.8117 157.647L64.7296 157.605L65.0227 146.176L65.0304 145.873L64.7657 145.726L56.8968 141.354L57.3412 80.9219C57.4041 80.9422 57.4712 80.9638 57.5424 80.9867C58.09 81.1625 58.8801 81.4125 59.8515 81.7096C61.7941 82.3037 64.4636 83.0866 67.37 83.8415C70.2751 84.5961 73.4236 85.3244 76.3225 85.8076C79.2097 86.2888 81.8933 86.5347 83.8493 86.3C87.5966 85.8503 92.3633 85.5124 96.1995 85.2867C98.1162 85.1739 99.7982 85.0894 101.001 85.033C101.602 85.0048 102.084 84.9837 102.415 84.9696C102.58 84.9625 102.708 84.9573 102.794 84.9538L102.824 84.9526L113.847 89.1589Z" fill="#B3B3B3" stroke="black"/>
<path d="M114.837 89.6939L121.048 93.5767L120.86 199.501L115.286 195.782L114.837 89.6939Z" fill="#999999" stroke="black"/>
<path d="M109.235 193.15L109.23 193.452L109.495 193.597L114.386 196.263L117.638 198.469L116.375 198.766L78.3388 177.781L93.3435 173.703L106.407 180.362L109.328 187.203L109.235 193.15Z" fill="#CCCCCC" stroke="black"/>
<path d="M115.523 203.892L77.2151 183.344V178.609L115.644 199.291L115.523 203.892Z" stroke="black"/>
<path d="M121.357 200.652L121.527 200.733L121.708 200.681L182.255 183.382L182.438 184.936L116.916 203.911L116.677 199.712L118.641 199.366L121.357 200.652Z" stroke="black"/>
<path d="M121.771 93.8529L215.447 66.0032L215.298 172.579L122.069 199.386L121.771 93.8529Z" stroke="black"/>
<path d="M126.884 183.581L126.438 97.0182L208.976 73.5209V159.786L126.884 183.581Z" stroke="black"/>
<path d="M127.02 187.365L125.919 184.948L210.495 159.899L211.476 161.049L127.02 187.365Z" fill="#ECECEC" stroke="black"/>
<path d="M131.403 194.238V192.463L135.139 191.529L134.959 193.053L131.403 194.238Z" stroke="black"/>
<path d="M163.652 184.141L162.953 183.632L166.133 182.426L166.748 183.109L163.652 184.141Z" stroke="black"/>
<path d="M173.253 181.147L172.485 180.733L175.493 179.696L176.123 180.263L173.253 181.147Z" stroke="black"/>
<path d="M182.76 178.578L181.994 178.067L185.071 177.005L185.602 177.668L182.76 178.578Z" stroke="black"/>
<path d="M153.366 188.775L152.607 188.43L152.519 187.028L153.537 187.318L153.366 188.775Z" stroke="black"/>
<path d="M161.973 185.643V184.418L163.371 185.087L163.205 186.197L161.973 185.643Z" stroke="black"/>
<path d="M171.476 182.783L171.591 181.511L172.846 182.109L172.673 183.322L171.476 182.783Z" stroke="black"/>
<path d="M181.144 179.95L181.197 178.834L182.019 179.318L181.913 180.43L181.144 179.95Z" stroke="black"/>
<path d="M157.903 188.106L154.622 188.746L154.789 187.629L157.963 186.652L157.903 188.106Z" stroke="black"/>
<path d="M167.484 185.152L164.171 186.041L164.278 184.974L167.538 184.077L167.484 185.152Z" stroke="black"/>
<path d="M173.986 183.48L174.166 182.096L177.179 181.2L177.24 182.607L173.986 183.48Z" stroke="black"/>
<path d="M183.135 180.818L183.497 179.248L186.55 178.506L186.605 179.556L183.135 180.818Z" stroke="black"/>
<path d="M132.915 193.518L132.915 193.518C133.446 193.389 134.01 193.241 134.444 193.122C134.6 193.079 134.739 193.04 134.852 193.008C134.856 192.818 134.856 192.578 134.851 192.363M132.915 193.518L135.185 191.955M132.915 193.518L131.746 193.8M132.915 193.518L131.746 193.8M134.851 192.363L135.351 192.352L134.851 192.363C134.851 192.363 134.851 192.363 134.851 192.363ZM134.851 192.363C134.849 192.238 134.841 192.135 134.831 192.053M134.831 192.053C134.999 192.01 135.126 191.976 135.185 191.955M134.831 192.053C134.718 192.082 134.586 192.115 134.444 192.149C134.076 192.239 133.605 192.35 133.119 192.462M134.831 192.053C134.819 191.948 134.802 191.878 134.788 191.838C134.786 191.833 134.785 191.83 134.784 191.827M135.185 191.955C135.143 191.97 135.082 191.98 135.011 191.968C134.94 191.957 134.884 191.926 134.845 191.896C134.808 191.866 134.789 191.838 134.784 191.827M135.185 191.955L133.119 192.462M133.119 192.462L133.007 191.975L133.119 192.462L131.746 192.777M133.119 192.462L135.186 191.955L135.023 191.482C134.883 191.531 133.976 191.752 133.007 191.975L131.246 192.379H131.746V192.777M134.784 191.827C134.782 191.824 134.781 191.823 134.781 191.823C134.781 191.823 134.782 191.824 134.784 191.827ZM131.746 192.777V193.407V193.407L131.746 193.8M131.746 192.777L131.746 193.8" fill="#008000" stroke="black"/>
<path d="M186.867 180.586C186.744 180.627 186.622 180.667 186.501 180.706C186.502 180.629 186.485 180.542 186.436 180.455C186.346 180.296 186.205 180.24 186.157 180.223C186.055 180.188 185.96 180.191 185.935 180.192C185.856 180.194 185.764 180.208 185.681 180.223C185.334 180.285 184.697 180.45 183.969 180.668C183.868 180.698 183.766 180.729 183.661 180.761C182.58 180.988 181.804 181.188 181.258 181.365C180.851 181.497 180.544 181.625 180.331 181.756C180.224 181.822 180.116 181.903 180.032 182.007C179.974 182.078 179.919 182.172 179.891 182.284C179.842 182.315 179.795 182.345 179.75 182.375L178.039 182.859L178.024 182.863L178.009 182.868C177.031 183.214 176.521 183.408 176.228 183.521C175.911 183.644 175.905 183.646 175.867 183.652C175.839 183.657 175.804 183.66 175.754 183.665C175.509 183.691 174.887 183.754 172.843 184.155L172.798 184.164L172.755 184.181C171.536 184.666 169.817 185.215 168.248 185.673L168.126 185.358C165.836 186.055 164.672 186.447 164.313 186.615C164.27 186.635 164.202 186.668 164.143 186.712C164.127 186.724 164.035 186.79 163.977 186.911C163.974 186.916 163.971 186.922 163.969 186.929C163.89 186.947 163.809 186.966 163.727 186.985L163.716 186.988L163.705 186.991L161.258 187.686L158.81 188.382L158.81 188.381L158.801 188.384C158.656 188.428 158.52 188.469 158.393 188.508C158.389 188.507 158.386 188.506 158.384 188.506L158.383 188.505C158.329 188.492 158.285 188.491 158.267 188.491C158.204 188.49 158.144 188.502 158.129 188.505C158.072 188.516 157.991 188.535 157.889 188.561C157.679 188.614 157.337 188.707 156.816 188.853L155.248 189.293L155.392 189.341C155.198 189.401 154.987 189.466 154.759 189.536C153.445 189.935 151.6 190.478 149.543 191.066C147.744 191.58 145.296 192.402 142.658 193.289C142.255 193.424 141.848 193.561 141.439 193.698C138.334 194.739 135.06 195.818 132.284 196.576L121.729 199.458L121.853 146.647C121.887 132.125 121.926 118.802 121.962 109.103C121.98 104.254 121.997 100.311 122.012 97.5783C122.019 96.2119 122.026 95.1484 122.033 94.4255C122.036 94.1082 122.038 93.8572 122.041 93.6753C122.217 93.6204 122.462 93.5453 122.771 93.451C123.464 93.2397 124.476 92.9335 125.763 92.5458C128.338 91.7705 132.008 90.67 136.41 89.3531C145.214 86.7194 156.941 83.2206 168.667 79.728C180.392 76.2353 192.115 72.749 200.912 70.1402C205.31 68.8357 208.976 67.7508 211.545 66.9942C212.829 66.6158 213.839 66.3197 214.528 66.1194C214.692 66.0718 214.837 66.0297 214.964 65.9932C214.965 66.1311 214.966 66.2905 214.967 66.471C214.971 67.2058 214.975 68.2868 214.979 69.6751C214.986 72.4517 214.992 76.4561 214.994 81.376C214.999 91.2158 214.99 104.717 214.956 119.381L214.832 172.32L214.143 172.499C213.549 172.652 206.472 174.677 198.427 176.995C194.393 178.158 190.127 179.52 186.867 180.586ZM158.034 188.554C158.033 188.555 158.032 188.555 158.031 188.555C158.041 188.55 158.044 188.55 158.034 188.554ZM135.153 191.496L135.188 190.997C135.11 190.992 135.035 191.001 134.987 191.008C134.931 191.017 134.868 191.029 134.801 191.043C134.667 191.071 134.491 191.113 134.277 191.165C134.191 191.186 134.099 191.209 133.999 191.233C133.595 191.333 133.073 191.461 132.415 191.614L131.142 191.908L130.754 191.998V192.395V193.436C130.754 193.911 130.755 194.178 130.769 194.318C130.773 194.356 130.781 194.412 130.799 194.472C130.816 194.527 130.859 194.646 130.978 194.741C131.108 194.846 131.246 194.857 131.303 194.858C131.324 194.858 131.344 194.857 131.35 194.857C131.403 194.856 131.464 194.846 131.488 194.842L131.493 194.841C131.536 194.834 131.591 194.824 131.652 194.813C131.774 194.791 131.927 194.762 132.076 194.733C132.225 194.704 132.372 194.675 132.481 194.654L132.613 194.627L132.65 194.62L132.66 194.618L132.662 194.618L132.663 194.617L132.663 194.617L132.565 194.127L132.663 194.617L132.681 194.614L132.698 194.609L134.09 194.224L134.09 194.224L134.095 194.223L134.11 194.219L134.16 194.206C134.201 194.195 134.255 194.18 134.319 194.163C134.445 194.129 134.609 194.084 134.773 194.037C134.935 193.99 135.105 193.939 135.239 193.892C135.305 193.869 135.374 193.843 135.433 193.816C135.461 193.803 135.501 193.783 135.541 193.757C135.561 193.744 135.591 193.723 135.624 193.692C135.651 193.667 135.71 193.607 135.749 193.512L135.288 193.319L135.749 193.512C135.778 193.442 135.789 193.375 135.793 193.351C135.798 193.314 135.802 193.275 135.805 193.239C135.811 193.166 135.814 193.078 135.816 192.984C135.82 192.795 135.817 192.562 135.806 192.334C135.795 192.109 135.777 191.874 135.747 191.687C135.733 191.598 135.713 191.495 135.68 191.404C135.665 191.361 135.637 191.29 135.586 191.221C135.542 191.161 135.414 191.013 135.188 190.997L135.153 191.496ZM210.373 159.145V115.898C210.373 101.779 210.357 90.9052 210.325 83.5613C210.31 79.8896 210.29 77.099 210.267 75.2258C210.255 74.2897 210.243 73.5804 210.229 73.1041C210.223 72.8668 210.216 72.6827 210.208 72.5559C210.204 72.4942 210.2 72.4369 210.194 72.391C210.192 72.3711 210.187 72.3354 210.178 72.2974C210.174 72.2824 210.162 72.237 210.136 72.1853C210.124 72.1605 210.094 72.1067 210.04 72.0527C209.984 71.9974 209.864 71.9077 209.687 71.9077C209.653 71.9077 209.626 71.9113 209.618 71.9123C209.606 71.9139 209.596 71.9157 209.589 71.9169C209.576 71.9193 209.563 71.922 209.553 71.9242C209.54 71.9271 209.525 71.9305 209.51 71.9343C209.501 71.9365 209.491 71.9388 209.481 71.9413C209.428 71.9546 209.355 71.9738 209.263 71.9981C209.08 72.0468 208.818 72.1183 208.486 72.2099C207.822 72.3931 206.874 72.6578 205.714 72.9843C203.392 73.6372 200.217 74.5377 196.747 75.5282C189.808 77.5089 170.98 82.8713 154.907 87.4447C146.87 89.7314 139.547 91.8266 134.222 93.36C131.559 94.1266 129.396 94.753 127.893 95.1928C127.141 95.4126 126.554 95.5861 126.151 95.7072C125.95 95.7677 125.793 95.8157 125.684 95.8502C125.63 95.8672 125.585 95.882 125.551 95.8939C125.534 95.8995 125.515 95.9063 125.497 95.9134C125.489 95.9168 125.474 95.9227 125.458 95.9307C125.449 95.9346 125.435 95.9416 125.418 95.9513L125.418 95.9514C125.407 95.9577 125.367 95.9811 125.325 96.0214L125.325 96.0214C125.235 96.1061 125.202 96.2022 125.197 96.2173L125.196 96.2187C125.185 96.249 125.18 96.2741 125.177 96.2861C125.172 96.3118 125.169 96.3339 125.168 96.345C125.165 96.37 125.163 96.3967 125.162 96.4196C125.159 96.4679 125.156 96.5332 125.154 96.6118C125.15 96.7706 125.146 97.0014 125.142 97.2987C125.136 97.8942 125.131 98.766 125.127 99.8832C125.121 102.118 125.121 105.34 125.128 109.309C125.143 117.247 125.183 128.176 125.247 140.18C125.443 177.364 125.226 182.478 125.172 183.726C125.168 183.838 125.164 183.92 125.163 183.99L125.163 183.99C125.162 184.001 125.162 184.006 125.146 184.063L125.145 184.067C125.127 184.131 125.094 184.245 125.094 184.396C125.095 184.681 125.211 185.017 125.469 185.528C125.603 185.795 125.715 186.013 125.812 186.18C125.905 186.34 126.012 186.502 126.149 186.622C126.315 186.766 126.509 186.833 126.72 186.825C126.887 186.819 127.051 186.764 127.166 186.726C127.166 186.726 127.17 186.725 127.182 186.721L127.234 186.705L127.42 186.65C127.58 186.602 127.809 186.534 128.105 186.447C128.695 186.272 129.548 186.021 130.636 185.7C132.811 185.06 135.922 184.145 139.74 183.024C147.375 180.781 157.833 177.712 169.273 174.358C172.669 173.362 175.798 172.445 178.68 171.599C195.519 166.662 203.939 164.193 208.123 162.95C210.566 162.225 211.578 161.913 211.978 161.772C212.075 161.738 212.16 161.705 212.224 161.673C212.247 161.661 212.318 161.625 212.382 161.561C212.415 161.528 212.483 161.452 212.516 161.331C212.557 161.185 212.528 161.037 212.453 160.922C212.412 160.859 212.365 160.816 212.328 160.788C212.302 160.756 212.275 160.726 212.251 160.699C212.184 160.627 212.095 160.542 211.996 160.452C211.795 160.27 211.523 160.043 211.228 159.813L210.373 159.145Z" fill="#B3B3B3" stroke="black"/>
<path d="M96.548 193.254L96.548 193.254L77.7602 183.155L77.6717 181.148C77.6353 180.325 77.5736 179.61 77.5258 179.057C77.5075 178.845 77.4913 178.656 77.4792 178.494C77.4777 178.474 77.4763 178.454 77.4749 178.434C77.652 178.529 77.8654 178.644 78.1123 178.777C78.8487 179.175 79.8788 179.736 81.1218 180.416C83.6075 181.776 86.9418 183.609 90.4737 185.555C97.5377 189.448 105.39 193.791 108.824 195.701L115.849 199.61L115.855 201.853V201.853C115.855 202.239 115.948 202.634 116.032 202.955C116.05 203.026 116.068 203.093 116.084 203.156C116.138 203.358 116.18 203.518 116.201 203.649C116.083 203.624 115.921 203.574 115.702 203.487C115.7 203.486 115.698 203.485 115.695 203.484L115.617 203.443C115.548 203.407 115.446 203.353 115.314 203.284C115.051 203.145 114.667 202.941 114.175 202.68C113.191 202.157 111.777 201.405 110.038 200.477C106.56 198.622 101.783 196.068 96.548 193.254ZM77.4651 177.883C77.4653 177.883 77.4647 177.887 77.4632 177.892C77.4642 177.886 77.465 177.883 77.4651 177.883Z" fill="#B3B3B3" stroke="black"/>
<path d="M116.865 202.859L116.865 202.859C116.867 202.704 116.854 202.514 116.841 202.329C116.835 202.241 116.829 202.154 116.824 202.073C116.809 201.794 116.806 201.487 116.851 201.138L116.856 201.103L116.855 201.068L116.836 199.681L117.696 199.455C117.954 199.386 118.176 199.317 118.353 199.262C118.42 199.241 118.481 199.223 118.535 199.206C118.748 199.143 118.85 199.124 118.924 199.126C119.028 199.128 119.182 199.166 119.751 199.699L119.792 199.738L119.842 199.766L121.101 200.497L121.289 200.606L121.497 200.543L151.518 191.466C159.768 188.972 168.074 186.556 174.337 184.767C177.469 183.873 180.089 183.135 181.936 182.623C182.859 182.367 183.589 182.167 184.091 182.032C184.255 181.988 184.394 181.952 184.508 181.922C184.521 181.972 184.535 182.029 184.55 182.093C184.626 182.435 184.691 182.9 184.726 183.374L184.753 183.731L149.914 193.923C141.006 196.529 132.924 198.908 127.04 200.643C124.827 201.296 122.925 201.857 121.407 202.305C120.907 202.453 120.448 202.588 120.034 202.71C119.198 202.957 118.542 203.15 118.089 203.284C117.862 203.351 117.685 203.402 117.562 203.438L117.419 203.48C117.39 203.488 117.376 203.492 117.372 203.493C117.37 203.494 117.37 203.494 117.37 203.494C117.274 203.518 117.156 203.559 117.061 203.593C117.035 203.602 117.01 203.61 116.988 203.618C116.938 203.635 116.894 203.649 116.854 203.661L116.865 202.859ZM116.667 203.698C116.667 203.698 116.669 203.698 116.672 203.698C116.669 203.698 116.667 203.698 116.667 203.698Z" fill="#999999" stroke="black"/>
<path d="M125.82 184.401C125.903 184.372 144.838 178.76 167.898 171.929L209.824 159.51M125.82 184.401L209.144 73.1571M125.82 184.401C125.749 184.425 125.715 184.352 125.713 184.092C125.713 184.092 125.713 184.092 125.713 184.091C125.713 184.04 125.714 183.98 125.716 183.913L125.82 184.401ZM209.824 159.51L209.765 116.079C209.732 92.1916 209.672 72.614 209.632 72.5733C209.631 72.5723 209.63 72.5712 209.629 72.5703C209.606 72.5482 209.574 72.5356 209.137 72.6435C209.138 72.651 209.14 72.6634 209.143 72.6782C209.146 72.6898 209.154 72.7202 209.16 72.7385C209.172 72.7712 209.228 72.8684 209.278 72.9268C209.268 72.9163 209.295 72.9453 209.331 72.9713C209.376 73.0034 209.425 73.0265 209.475 73.0403C209.533 73.0562 209.579 73.0558 209.594 73.055M209.824 159.51L209.324 159.511L209.324 159.137M209.824 159.51L209.682 159.031L209.324 159.137M209.594 73.055C209.566 73.0583 209.476 73.0746 209.243 73.1322C209.213 73.1399 209.18 73.1482 209.144 73.1571M209.594 73.055C209.6 73.0546 209.602 73.0542 209.597 73.0547L209.594 73.055ZM209.144 73.1571C208.655 73.2813 207.741 73.5311 206.016 74.0148C202.339 75.0465 195.006 77.1341 180.337 81.3106L180.174 81.3568C143.467 91.8074 130.232 95.5935 126.781 96.631L126.145 96.822L126.248 124.006C126.362 153.998 126.371 178.611 126.27 182.787H126.289L126.251 183.323C126.238 183.496 126.229 183.64 126.223 183.759C129.538 182.773 146.986 177.602 167.756 171.45L209.324 159.137M209.144 73.1571C209.145 73.2528 209.147 73.3602 209.148 73.4794C209.153 74.0642 209.159 74.9247 209.165 76.0317C209.177 78.2455 209.189 81.4426 209.201 85.3851C209.225 93.2702 209.249 104.136 209.265 116.08L209.324 159.137M126.22 184.217C126.22 184.217 126.22 184.216 126.219 184.212C126.22 184.215 126.22 184.217 126.22 184.217Z" fill="#1A1A1A" stroke="black"/>
</svg>
