<svg width="232" height="376" viewBox="0 0 232 376" fill="none" xmlns="http://www.w3.org/2000/svg">
<path d="M138.993 85.8374L210.116 24.3872L98.2367 0.541788L28.5981 62.5355L138.993 85.8374Z" fill="#B3B3B3" stroke="black"/>
<path d="M209.701 276.573L210.697 25.1432L139.485 86.5236L141.625 335.59L209.701 276.573Z" fill="#808080" stroke="black"/>
<path d="M27.4015 314.363L140.692 336.071L138.636 86.6408L28.0246 63.4357L27.4015 314.363Z" fill="#CCCCCC" stroke="black"/>
<path d="M138.987 374.481L230.993 294.929L211.674 275.038L141.634 336.707L134.653 346.616L138.987 374.481Z" fill="#666666" stroke="black"/>
<path d="M140.189 336.907L26.8067 315.267L26.3892 315.188L26.4006 314.763L26.4914 311.378L17.3172 320.796L134.394 345.931L140.189 336.907Z" fill="#B3B3B3" stroke="black"/>
<path d="M0.821106 345.665L138.035 374.811L133.995 346.786L16.7447 321.533L0.821106 345.665Z" fill="#CCCCCC" stroke="black"/>
<path d="M130.866 110.302L130.63 93.4114L38.2608 74.2267L37.5526 91.1269L130.866 110.302Z" stroke="black"/>
<path d="M130.399 133.375L131.108 115.982L38.2618 96.5585L37.5519 114.194L130.399 133.375Z" stroke="black"/>
<path d="M130.391 156.196L130.864 139.293L37.7936 119.146L38.0304 137.256L130.391 156.196Z" stroke="black"/>
<path d="M125.944 95.4009L127.187 94.0498L44.4705 76.8645L43.2477 78.2136L125.944 95.4009Z" fill="#808080" stroke="black"/>
<path d="M127.908 94.7392L126.62 96.1428V103.507L128.117 101.893L127.908 94.7392Z" fill="#4D4D4D" stroke="black"/>
<path d="M42.2896 86.9513L125.37 103.924V96.1133L42.2896 79.6251V86.9513Z" stroke="black"/>
<path d="M130.943 110.423L131.402 108.62L39.4891 89.6988L38.6194 90.7412L130.943 110.423Z" fill="#999999" stroke="black"/>
<path d="M38.1291 89.854L39.0162 88.984L38.8928 74.7804L38.2897 75.1253L38.1291 89.854Z" fill="#4D4D4D" stroke="black"/>
<path d="M130.743 131.183L40.3778 111.739L38.4272 114.162L130.363 133.664L130.743 131.183Z" fill="#999999" stroke="black"/>
<path d="M43.0396 101.325L125.67 118.97L127.534 117.202L44.6199 99.4182L43.0396 101.325Z" fill="#999999" stroke="black"/>
<path d="M126.976 127.268L128.497 126.203L128.156 117.987L126.513 119.544L126.976 127.268Z" fill="#4D4D4D" stroke="black"/>
<mask id="path-18-inside-1_6_291" fill="white">
<path d="M42.482 101.469L125.646 119.514L126.177 129.058"/>
</mask>
<path d="M125.646 119.514L125.858 118.537L126.602 118.699L126.645 119.459L125.646 119.514ZM42.694 100.491L125.858 118.537L125.434 120.492L42.2699 102.446L42.694 100.491ZM126.645 119.459L127.175 129.002L125.179 129.113L124.648 119.57L126.645 119.459Z" fill="black" mask="url(#path-18-inside-1_6_291)"/>
<path d="M125.478 128.208L125.255 119.79L42.4496 102.217L42.8939 110.386L125.478 128.208Z" stroke="black"/>
<path d="M38.1677 113.084L39.9089 110.872L39.5502 96.8375L38.161 97.3924L38.1677 113.084Z" fill="#4D4D4D" stroke="black"/>
<path d="M126.097 141.661L127.695 140.192L44.2006 122.504L42.9281 123.752L126.097 141.661Z" fill="#999999" stroke="black"/>
<path d="M128.308 148.619L128.255 140.866L126.498 142.315L126.607 149.705L128.308 148.619Z" fill="#4D4D4D" stroke="black"/>
<path d="M125.058 150.826V142.647L42.3736 124.477L42.5324 133.509L125.058 150.826Z" stroke="black"/>
<path d="M38.3404 136.317L39.6816 134.85V119.625L37.7805 119.455L38.3404 136.317Z" fill="#4D4D4D" stroke="black"/>
<path d="M130.4 156.385L130.519 154.273L40.2618 135.503L38.8226 136.998L130.4 156.385Z" fill="#999999" stroke="black"/>
<path d="M120.782 102.656L120.963 99.9102L117.111 99.1353V101.585L120.782 102.656Z" fill="#1A1A1A" stroke="black"/>
<path d="M120.755 126.797L120.855 122.872L117.431 122.296L117.031 126.312L120.755 126.797Z" fill="#1A1A1A" stroke="black"/>
<path d="M120.882 149.663L120.98 146.027L117.102 145.052L117.054 148.688L120.882 149.663Z" fill="#1A1A1A" stroke="black"/>
<path d="M47.4197 87.8046L55.4664 89.3389L55.6518 86.5209L47.4197 84.5572V87.8046Z" fill="#008000" stroke="black"/>
<path d="M46.9826 107.375L46.586 111.263L55.3354 113.243L55.532 109.581L46.9826 107.375Z" fill="#008000" stroke="black"/>
<path d="M55.9445 136.176L56.0432 132.304L47.3869 130.54L47.1915 134.085L55.9445 136.176Z" fill="#008000" stroke="black"/>
<path d="M133.184 168.523L134.59 166.819L32.6537 145.685L31.1113 146.869L133.184 168.523Z" fill="#FF5555" stroke="black"/>
<path d="M133.962 190.524L135.127 189.679L134.982 167.793L133.784 169.252L133.962 190.524Z" fill="#550000" stroke="black"/>
<path d="M30.6514 170.138L132.996 190.915L132.787 169.449L30.5318 147.608L30.6514 170.138Z" fill="#AA0000" stroke="black"/>
<path d="M125.727 210.522L125.505 202.465L117.452 200.271L117.008 208.439L125.727 210.522Z" fill="#00FF00" stroke="black"/>
<path d="M118.363 183.674L118.363 170.959L105.464 168.452L105.232 180.939L118.363 183.674Z" fill="#FF0000" stroke="black"/>
<path d="M110.859 326.973L111.354 231.811L48.0214 218.762L44.3078 311.987L110.859 326.973Z" fill="#B3B3B3" stroke="black"/>
<path d="M106.355 321.341L106.85 235.029L102.597 234.433V320.565L106.355 321.341Z" fill="#6C5353" stroke="black"/>
<path d="M97.3395 319.382L96.8448 233.269L93.8351 232.532L93.3406 318.598L97.3395 319.382Z" fill="#6C5353" stroke="black"/>
<path d="M87.3369 317.44L87.8312 231.144L83.8292 230.948V316.866L87.3369 317.44Z" fill="#6C5353" stroke="black"/>
<path d="M73.5747 313.847L74.3173 228.397L70.5665 227.816V313.847H73.5747Z" fill="#6C5353" stroke="black"/>
<path d="M64.3152 312.001L64.8097 227.138L60.5607 226.146L61.0552 311.249L64.3152 312.001Z" fill="#6C5353" stroke="black"/>
<path d="M55.0592 309.86L56.0492 224.674L52.2955 223.705L51.8013 309.484L55.0592 309.86Z" fill="#6C5353" stroke="black"/>
</svg>
