<svg width="662" height="94" viewBox="0 0 662 94" fill="none" xmlns="http://www.w3.org/2000/svg">
<path d="M1.2583 1.68433H660.616V92.3804H1.2583V1.68433Z" fill="#707070"/>
<path d="M1.2583 1.68433H653.066V88.4935H1.2583V1.68433Z" fill="white"/>
<rect x="1.2583" y="88.4935" width="7.5499" height="3.88698" fill="white"/>
<path d="M10.0665 87.5217L18.7844 92.3804H1.34866L10.0665 87.5217Z" fill="#707070"/>
<rect x="660.616" y="5.57129" width="7.5499" height="3.88698" transform="rotate(180 660.616 5.57129)" fill="#707070"/>
<path d="M651.933 6.47827L643.216 1.61955L660.651 1.61955L651.933 6.47827Z" fill="white"/>
<rect x="5" y="4" width="652" height="86" fill="#C0C0C0"/>
<rect x="5" y="4" width="652" height="22" fill="#6A6A6A"/>
<path opacity="0.42" d="M20 8.29623H23.9154V10.2539H25.873V12.2116H27.8307V14.1693H29.7884V8.29623H33.7038V22H29.7884V20.0423H27.8307V18.0846H25.873V16.127H23.9154V22H20V8.29623ZM35.6562 8.29623H49.36V10.2539H39.5716V14.1693H47.4023V16.127H39.5716V20.0423H49.36V22H35.6562V8.29623ZM53.2702 8.29623H65.0163V10.2539H61.1009V22H57.1855V10.2539H53.2702V8.29623ZM66.9688 8.29623H70.8841V16.127H72.8418V14.1693H74.7995V16.127H76.7572V8.29623H80.6725V22H76.7572V20.0423H74.7995V18.0846H72.8418V20.0423H70.8841V22H66.9688V8.29623ZM84.5827 8.29623H94.3711V10.2539H96.3288V20.0423H94.3711V22H84.5827V20.0423H82.625V10.2539H84.5827V8.29623ZM86.5404 10.2539V20.0423H92.4134V10.2539H86.5404ZM98.2812 8.29623H110.027V10.2539H111.985V16.127H108.07V18.0846H110.027V20.0423H111.985V22H106.112V20.0423H104.154V18.0846H102.197V22H98.2812V8.29623ZM102.197 10.2539V16.127H106.112V14.1693H108.07V10.2539H102.197ZM113.938 8.29623H117.853V14.1693H119.811V12.2116H121.768V10.2539H123.726V8.29623H127.641V10.2539H125.684V12.2116H123.726V14.1693H121.768V16.127H123.726V18.0846H125.684V20.0423H127.641V22H121.768V20.0423H119.811V18.0846H117.853V22H113.938V8.29623ZM147.208 8.29623H158.954V10.2539H155.038V22H151.123V10.2539H147.208V8.29623ZM162.864 8.29623H166.779V14.1693H170.695V8.29623H174.61V14.1693H172.652V16.127H170.695V22H166.779V16.127H164.822V14.1693H162.864V8.29623ZM180.478 8.29623H188.309V10.2539H190.266V12.2116H186.351V10.2539H182.436V12.2116H180.478V18.0846H182.436V20.0423H186.351V18.0846H190.266V20.0423H188.309V22H180.478V20.0423H178.52V18.0846H176.562V12.2116H178.52V10.2539H180.478V8.29623ZM194.176 8.29623H203.965V10.2539H205.923V20.0423H203.965V22H194.176V20.0423H192.219V10.2539H194.176V8.29623ZM196.134 10.2539V20.0423H202.007V10.2539H196.134ZM209.833 8.29623H219.621V10.2539H221.579V20.0423H219.621V22H209.833V20.0423H207.875V10.2539H209.833V8.29623ZM211.79 10.2539V20.0423H217.663V10.2539H211.79ZM223.531 8.29623H227.447V10.2539H229.404V12.2116H231.362V14.1693H233.32V8.29623H237.235V22H233.32V20.0423H231.362V18.0846H229.404V16.127H227.447V22H223.531V8.29623Z" fill="white"/>
</svg>
