<svg width="254" height="53" viewBox="0 0 254 53" fill="none" xmlns="http://www.w3.org/2000/svg">
<rect x="3" y="1" width="248" height="2" fill="#707070"/>
<rect x="3" y="50" width="248" height="2" fill="white"/>
<rect x="1" y="1" width="2" height="51" fill="#707070"/>
<path d="M3.09998 49.75L5.26504 52H0.934912L3.09998 49.75Z" fill="white"/>
<rect x="251" y="1" width="2" height="51" fill="white"/>
<path d="M250.8 3.25L248.635 1L252.965 1L250.8 3.25Z" fill="#707070"/>
<rect x="3" y="3" width="248" height="47" fill="#3F3F3F"/>
<path d="M9 20.0092H17.5649V21.7222H19.2778V23.4351H20.9908V28.5741H19.2778V30.287H17.5649V32H9V20.0092ZM12.4259 21.7222V30.287H15.8519V28.5741H17.5649V23.4351H15.8519V21.7222H12.4259ZM22.6992 20.0092H31.2641V21.7222H32.977V23.4351H34.69V28.5741H32.977V30.287H31.2641V32H22.6992V20.0092ZM26.1252 21.7222V30.287H29.5511V28.5741H31.2641V23.4351H29.5511V21.7222H26.1252ZM38.1114 21.7222H41.5374V25.1481H38.1114V21.7222ZM38.1114 28.5741H41.5374V32H38.1114V28.5741ZM50.0977 20.0092H53.5236V21.7222H55.2366V23.4351H56.9495V21.7222H58.6625V20.0092H62.0885V32H58.6625V26.8611H56.9495V28.5741H55.2366V26.8611H53.5236V32H50.0977V20.0092ZM63.7969 20.0092H67.2228V21.7222H68.9358V23.4351H70.6488V21.7222H72.3617V20.0092H75.7877V32H72.3617V26.8611H70.6488V28.5741H68.9358V26.8611H67.2228V32H63.7969V20.0092ZM79.2091 21.7222H82.635V25.1481H79.2091V21.7222ZM79.2091 28.5741H82.635V32H79.2091V28.5741ZM92.9083 20.0092H96.3342V25.1481H99.7602V20.0092H103.186V25.1481H101.473V26.8611H99.7602V32H96.3342V26.8611H94.6213V25.1481H92.9083V20.0092ZM106.608 20.0092H110.033V25.1481H113.459V20.0092H116.885V25.1481H115.172V26.8611H113.459V32H110.033V26.8611H108.32V25.1481H106.608V20.0092ZM132.293 20.0092H135.719V25.1481H140.858V20.0092H144.284V32H140.858V26.8611H135.719V32H132.293V20.0092ZM145.992 20.0092H149.418V25.1481H154.557V20.0092H157.983V32H154.557V26.8611H149.418V32H145.992V20.0092ZM161.404 21.7222H164.83V25.1481H161.404V21.7222ZM161.404 28.5741H164.83V32H161.404V28.5741ZM173.391 20.0092H176.817V21.7222H178.53V23.4351H180.243V21.7222H181.955V20.0092H185.381V32H181.955V26.8611H180.243V28.5741H178.53V26.8611H176.817V32H173.391V20.0092ZM187.09 20.0092H190.516V21.7222H192.229V23.4351H193.942V21.7222H195.655V20.0092H199.081V32H195.655V26.8611H193.942V28.5741H192.229V26.8611H190.516V32H187.09V20.0092ZM202.502 21.7222H205.928V25.1481H202.502V21.7222ZM202.502 28.5741H205.928V32H202.502V28.5741ZM216.201 20.0092H223.053V21.7222H224.766V23.4351H221.34V21.7222H217.914V25.1481H224.766V26.8611H226.479V30.287H224.766V32H216.201V30.287H214.488V28.5741H217.914V30.287H223.053V26.8611H216.201V25.1481H214.488V21.7222H216.201V20.0092ZM229.9 20.0092H236.752V21.7222H238.465V23.4351H235.039V21.7222H231.613V25.1481H238.465V26.8611H240.178V30.287H238.465V32H229.9V30.287H228.188V28.5741H231.613V30.287H236.752V26.8611H229.9V25.1481H228.188V21.7222H229.9V20.0092Z" fill="#00FF00"/>
</svg>
